<mxfile host="app.diagrams.net" modified="2023-05-11T06:39:22.894Z" agent="5.0 (X11; Linux x86_64) AppleWebKit/537.36 (KHTML, like Gecko) Chrome/113.0.0.0 Safari/537.36" etag="zBBXuTC7JQr6eHqjhQ5y" version="20.8.16" type="github">
  <diagram name="Page-1" id="2YBvvXClWsGukQMizWep">
    <mxGraphModel dx="758" dy="1661" grid="1" gridSize="10" guides="1" tooltips="1" connect="1" arrows="1" fold="1" page="1" pageScale="1" pageWidth="850" pageHeight="1100" math="0" shadow="0">
      <root>
        <mxCell id="0" />
        <mxCell id="1" parent="0" />
        <mxCell id="Kj5qIFh146dT2ycBZiFC-2" value="" style="rounded=1;whiteSpace=wrap;html=1;" vertex="1" parent="1">
          <mxGeometry x="120" y="-20" width="500" height="270" as="geometry" />
        </mxCell>
        <mxCell id="Kj5qIFh146dT2ycBZiFC-3" value="Vehicle 1&lt;br&gt;&lt;br&gt;&lt;br&gt;Actor 1" style="rounded=1;whiteSpace=wrap;html=1;" vertex="1" parent="1">
          <mxGeometry x="150" width="120" height="120" as="geometry" />
        </mxCell>
        <mxCell id="Kj5qIFh146dT2ycBZiFC-4" value="Vehicle i&lt;br&gt;&lt;br&gt;&lt;br&gt;Actor i" style="rounded=1;whiteSpace=wrap;html=1;" vertex="1" parent="1">
          <mxGeometry x="311" width="120" height="120" as="geometry" />
        </mxCell>
        <mxCell id="Kj5qIFh146dT2ycBZiFC-6" value="Vehicle K&lt;br&gt;&lt;br&gt;&lt;br&gt;Actor K" style="rounded=1;whiteSpace=wrap;html=1;" vertex="1" parent="1">
          <mxGeometry x="468" width="120" height="120" as="geometry" />
        </mxCell>
        <mxCell id="Kj5qIFh146dT2ycBZiFC-8" value="&lt;b&gt;&lt;font style=&quot;font-size: 22px;&quot;&gt;...&lt;/font&gt;&lt;/b&gt;" style="text;html=1;strokeColor=none;fillColor=none;align=center;verticalAlign=middle;whiteSpace=wrap;rounded=0;" vertex="1" parent="1">
          <mxGeometry x="261" y="50" width="60" height="30" as="geometry" />
        </mxCell>
        <mxCell id="Kj5qIFh146dT2ycBZiFC-9" value="&lt;b&gt;&lt;font style=&quot;font-size: 22px;&quot;&gt;...&lt;/font&gt;&lt;/b&gt;" style="text;html=1;strokeColor=none;fillColor=none;align=center;verticalAlign=middle;whiteSpace=wrap;rounded=0;" vertex="1" parent="1">
          <mxGeometry x="419" y="50" width="60" height="30" as="geometry" />
        </mxCell>
      </root>
    </mxGraphModel>
  </diagram>
</mxfile>
